<?xml version="1.0" encoding="UTF-8" standalone="no"?>
<svg
   xmlns:dc="http://purl.org/dc/elements/1.1/"
   xmlns:cc="http://creativecommons.org/ns#"
   xmlns:rdf="http://www.w3.org/1999/02/22-rdf-syntax-ns#"
   xmlns:svg="http://www.w3.org/2000/svg"
   xmlns="http://www.w3.org/2000/svg"
   xmlns:sodipodi="http://sodipodi.sourceforge.net/DTD/sodipodi-0.dtd"
   xmlns:inkscape="http://www.inkscape.org/namespaces/inkscape"
   viewBox="0 0 480 480"
   version="1.1"
   id="svg8"
   sodipodi:docname="battery_icon.svg"
   inkscape:export-filename="C:\Users\epoulsen\cyberdeck\hw\battery\batt_icon_128.png"
   inkscape:export-xdpi="25.6"
   inkscape:export-ydpi="25.6"
   inkscape:version="0.92.1 r15371"
   width="480"
   height="480">
  <metadata
     id="metadata14">
    <rdf:RDF>
      <cc:Work
         rdf:about="">
        <dc:format>image/svg+xml</dc:format>
        <dc:type
           rdf:resource="http://purl.org/dc/dcmitype/StillImage" />
        <dc:title></dc:title>
      </cc:Work>
    </rdf:RDF>
  </metadata>
  <defs
     id="defs12" />
  <sodipodi:namedview
     pagecolor="#ffffff"
     bordercolor="#666666"
     borderopacity="1"
     objecttolerance="10"
     gridtolerance="10"
     guidetolerance="10"
     inkscape:pageopacity="0"
     inkscape:pageshadow="2"
     inkscape:window-width="1920"
     inkscape:window-height="1017"
     id="namedview10"
     showgrid="false"
     inkscape:zoom="0.92187498"
     inkscape:cx="-25.683027"
     inkscape:cy="227.83861"
     inkscape:window-x="-8"
     inkscape:window-y="-8"
     inkscape:window-maximized="1"
     inkscape:current-layer="svg8"
     inkscape:pagecheckerboard="false"
     fit-margin-top="0"
     fit-margin-left="0"
     fit-margin-right="0"
     fit-margin-bottom="0" />
  <g
     class=""
     style="fill:#000000;fill-opacity:1"
     id="g6"
     transform="translate(-16,-16)">
    <path
       d="m 201,16 c -15,0 -20,3.38 -20,20 v 15 h -45 c -29.547,0 -35,5.453 -35,35 v 375 c 0,29.547 5.453,35 35,35 h 240 c 29.547,0 35,-5.453 35,-35 V 86 C 411,56.453 405.547,51 376,51 H 331 V 36 C 331,19.38 326,16 311,16 Z M 152.906,85.813 C 157.572,85.833 163.5,86 171,86 h 170 c 40,0 35,-5 35,35 v 305 c 0,40 5,35 -35,35 H 171 c -40,0 -35,5 -35,-35 V 121 c 0,-32.5 -3.31,-35.283 16.906,-35.188 z M 161,191 c -5.54,0 -10,4.46 -10,10 v 55 c 0,5.54 4.46,10 10,10 h 190 c 5.54,0 10,-4.46 10,-10 v -55 c 0,-5.54 -4.46,-10 -10,-10 z m 0,90 c -5.54,0 -10,4.46 -10,10 v 55 c 0,5.54 4.46,10 10,10 h 190 c 5.54,0 10,-4.46 10,-10 v -55 c 0,-5.54 -4.46,-10 -10,-10 z m 0,90 c -5.54,0 -10,4.46 -10,10 v 55 c 0,5.54 4.46,10 10,10 h 190 c 5.54,0 10,-4.46 10,-10 v -55 c 0,-5.54 -4.46,-10 -10,-10 z"
       id="path4"
       style="fill:#000000;fill-opacity:1"
       inkscape:connector-curvature="0" />
  </g>
</svg>
